# xmcd
#
# Track frame offsets: 
#        150
#        14925
#        28700
#        43300
#        59677
#        91550
#        107312
#        126545
#        146565
#        165407
#        180532
#        206145
#
# Disc length: 2945 seconds
#
# Revision: 5
# Processed by: cddbd v1.5.2PL0 Copyright (c) Steve Scherf et al.
# Submitted via: ExactAudioCopyFreeDBPlugin 1.0
#
DISCID=ab0b7f0c
DTITLE=Taj Mahal - The Natch'l Blues
DYEAR=2000
DGENRE=Blues
TTITLE0=Good Morning Miss Brown
TTITLE1=Corinna
TTITLE2=I Ain't Gonna Let Nobody Steal My Jellyroll
TTITLE3=Going Up to the Country, Paint My Mailbox Blue
TTITLE4=Done Changed My Way of Living
TTITLE5=She Caught the Katy and Left Me a Mule to Ride
TTITLE6=The Cuckoo
TTITLE7=You Don't Miss Your Water ('Til Your Well Runs Dry)
TTITLE8=Ain't That a Lot of Love
TTITLE9=The Cuckoo (alternate version bonus track)
TTITLE10=New Stranger Blues (bonus track)
TTITLE11=Things Are Gonna Work Out Fine (bonus track)
EXTD=
EXTT0=
EXTT1=
EXTT2=
EXTT3=
EXTT4=
EXTT5=
EXTT6=
EXTT7=
EXTT8=
EXTT9=
EXTT10=
EXTT11=
PLAYORDER=
